# ProBuilder 5.2.3
# https://unity3d.com/unity/features/worldbuilding/probuilder
# 8/27/2025 6:10:43 PM

mtllib ./Stairs.mtl
o Stairs

g Stairs
v 3 0 0
v 0 0 0
v 3 1 0
v 0 1 0
v 3 1 -1
v 0 1 -1
v 3 2 -1
v 0 2 -1
v 3 2 -2
v 0 2 -2
v 3 3 -2
v 0 3 -2
v 3 3 -3
v 0 3 -3
v 0 0 -1
v 0 0 -2
v 0 0 -3
v 3 0 -1
v 3 0 -2
v 3 0 -3

vt 3 0
vt 0 0
vt 3 1
vt 0 1
vt -3 0
vt -3 -1
vt 0 -1
vt 3 2
vt 0 2
vt -3 -2
vt 0 -2
vt 3 3
vt 0 3
vt -3 -3
vt 0 -3
vt -1 0
vt -1 1
vt -2 0
vt -2 2
vt -1 2
vt -3 3
vt -2 3
vt 1 0
vt 1 1
vt 2 0
vt 2 2
vt 1 2
vt 2 3

vn 0 0 1
vn 0 1 0
vn -1 0 0
vn 1 0 0
vn 0 0 -1

usemtl ProBuilderDefault
f 6/17/3 8/20/3 10/19/3
f 10/19/3 12/22/3 14/21/3
f 9/26/4 7/27/4 5/24/4
f 13/12/4 11/28/4 9/26/4
f 4/4/1 2/2/1 1/1/1
f 1/1/1 3/3/1 4/4/1
f 6/7/2 4/2/2 3/5/2
f 3/5/2 5/6/2 6/7/2
f 8/9/1 6/4/1 5/3/1
f 5/3/1 7/8/1 8/9/1
f 10/11/2 8/7/2 7/6/2
f 7/6/2 9/10/2 10/11/2
f 12/13/1 10/9/1 9/8/1
f 9/8/1 11/12/1 12/13/1
f 14/15/2 12/11/2 11/10/2
f 11/10/2 13/14/2 14/15/2
f 6/17/3 15/16/3 2/2/3
f 2/2/3 4/4/3 6/17/3
f 10/19/3 16/18/3 15/16/3
f 15/16/3 6/17/3 10/19/3
f 14/21/3 17/5/3 16/18/3
f 16/18/3 10/19/3 14/21/3
f 3/4/4 1/2/4 18/23/4
f 18/23/4 5/24/4 3/4/4
f 5/24/4 18/23/4 19/25/4
f 19/25/4 9/26/4 5/24/4
f 9/26/4 19/25/4 20/1/4
f 20/1/4 13/12/4 9/26/4
f 13/21/5 20/5/5 17/2/5
f 17/2/5 14/13/5 13/21/5

